<svg width="399" height="152" viewBox="0 0 399 152" fill="none" xmlns="http://www.w3.org/2000/svg">
<rect x="6" y="149" width="393" height="3" rx="1.5" fill="#121212"/>
<path d="M90.3047 138H77.4297L31.3047 66.5625C30.1381 64.7708 29.1797 62.8958 28.4297 60.9375H28.0547C28.3881 62.8542 28.5547 66.9583 28.5547 73.25V138H18.0547V48.375H31.6797L76.5547 118.688C78.4297 121.604 79.6381 123.604 80.1797 124.688H80.4297C80.0131 122.104 79.8047 117.708 79.8047 111.5V48.375H90.3047V138ZM139.18 139.5C129.721 139.5 122.159 136.521 116.492 130.562C110.867 124.562 108.055 116.625 108.055 106.75C108.055 96 110.992 87.6042 116.867 81.5625C122.742 75.5208 130.68 72.5 140.68 72.5C150.221 72.5 157.659 75.4375 162.992 81.3125C168.367 87.1875 171.055 95.3333 171.055 105.75C171.055 115.958 168.159 124.146 162.367 130.312C156.617 136.438 148.888 139.5 139.18 139.5ZM139.93 81.125C133.346 81.125 128.138 83.375 124.305 87.875C120.471 92.3333 118.555 98.5 118.555 106.375C118.555 113.958 120.492 119.938 124.367 124.312C128.242 128.688 133.43 130.875 139.93 130.875C146.555 130.875 151.638 128.729 155.18 124.438C158.763 120.146 160.555 114.042 160.555 106.125C160.555 98.125 158.763 91.9583 155.18 87.625C151.638 83.2917 146.555 81.125 139.93 81.125ZM242.055 138H231.805V127.125H231.555C226.805 135.375 219.471 139.5 209.555 139.5C201.513 139.5 195.076 136.646 190.242 130.938C185.451 125.188 183.055 117.375 183.055 107.5C183.055 96.9167 185.721 88.4375 191.055 82.0625C196.388 75.6875 203.492 72.5 212.367 72.5C221.159 72.5 227.555 75.9583 231.555 82.875H231.805V43.25H242.055V138ZM231.805 109.062V99.625C231.805 94.4583 230.096 90.0833 226.68 86.5C223.263 82.9167 218.93 81.125 213.68 81.125C207.43 81.125 202.513 83.4167 198.93 88C195.346 92.5833 193.555 98.9167 193.555 107C193.555 114.375 195.263 120.208 198.68 124.5C202.138 128.75 206.763 130.875 212.555 130.875C218.263 130.875 222.888 128.812 226.43 124.688C230.013 120.562 231.805 115.354 231.805 109.062ZM314.555 138H304.305V127.875H304.055C299.805 135.625 293.221 139.5 284.305 139.5C269.055 139.5 261.43 130.417 261.43 112.25V74H271.617V110.625C271.617 124.125 276.784 130.875 287.117 130.875C292.117 130.875 296.221 129.042 299.43 125.375C302.68 121.667 304.305 116.833 304.305 110.875V74H314.555V138ZM331.43 135.688V124.688C337.013 128.812 343.159 130.875 349.867 130.875C358.867 130.875 363.367 127.875 363.367 121.875C363.367 120.167 362.971 118.729 362.18 117.562C361.43 116.354 360.388 115.292 359.055 114.375C357.763 113.458 356.221 112.646 354.43 111.938C352.68 111.188 350.784 110.417 348.742 109.625C345.909 108.5 343.409 107.375 341.242 106.25C339.117 105.083 337.326 103.792 335.867 102.375C334.451 100.917 333.367 99.2708 332.617 97.4375C331.909 95.6042 331.555 93.4583 331.555 91C331.555 88 332.242 85.3542 333.617 83.0625C334.992 80.7292 336.826 78.7917 339.117 77.25C341.409 75.6667 344.013 74.4792 346.93 73.6875C349.888 72.8958 352.93 72.5 356.055 72.5C361.596 72.5 366.555 73.4583 370.93 75.375V85.75C366.221 82.6667 360.805 81.125 354.68 81.125C352.763 81.125 351.034 81.3542 349.492 81.8125C347.951 82.2292 346.617 82.8333 345.492 83.625C344.409 84.4167 343.555 85.375 342.93 86.5C342.346 87.5833 342.055 88.7917 342.055 90.125C342.055 91.7917 342.346 93.1875 342.93 94.3125C343.555 95.4375 344.451 96.4375 345.617 97.3125C346.784 98.1875 348.201 98.9792 349.867 99.6875C351.534 100.396 353.43 101.167 355.555 102C358.388 103.083 360.93 104.208 363.18 105.375C365.43 106.5 367.346 107.792 368.93 109.25C370.513 110.667 371.721 112.312 372.555 114.188C373.43 116.062 373.867 118.292 373.867 120.875C373.867 124.042 373.159 126.792 371.742 129.125C370.367 131.458 368.513 133.396 366.18 134.938C363.846 136.479 361.159 137.625 358.117 138.375C355.076 139.125 351.888 139.5 348.555 139.5C341.971 139.5 336.263 138.229 331.43 135.688Z" fill="#0D0D0D"/>
<path d="M86.702 140.528H73.827L27.702 69.0903C26.5354 67.2987 25.577 65.4237 24.827 63.4653H24.452C24.7854 65.382 24.952 69.4862 24.952 75.7778V140.528H14.452V50.9028H28.077L72.952 121.215C74.827 124.132 76.0354 126.132 76.577 127.215H76.827C76.4104 124.632 76.202 120.236 76.202 114.028V50.9028H86.702V140.528ZM135.577 142.028C126.119 142.028 118.556 139.049 112.89 133.09C107.265 127.09 104.452 119.153 104.452 109.278C104.452 98.5278 107.39 90.132 113.265 84.0903C119.14 78.0487 127.077 75.0278 137.077 75.0278C146.619 75.0278 154.056 77.9653 159.39 83.8403C164.765 89.7153 167.452 97.8612 167.452 108.278C167.452 118.486 164.556 126.674 158.765 132.84C153.015 138.965 145.285 142.028 135.577 142.028ZM136.327 83.6528C129.744 83.6528 124.535 85.9028 120.702 90.4028C116.869 94.8612 114.952 101.028 114.952 108.903C114.952 116.486 116.89 122.465 120.765 126.84C124.64 131.215 129.827 133.403 136.327 133.403C142.952 133.403 148.035 131.257 151.577 126.965C155.16 122.674 156.952 116.569 156.952 108.653C156.952 100.653 155.16 94.4862 151.577 90.1528C148.035 85.8195 142.952 83.6528 136.327 83.6528ZM238.452 140.528H228.202V129.653H227.952C223.202 137.903 215.869 142.028 205.952 142.028C197.91 142.028 191.473 139.174 186.64 133.465C181.848 127.715 179.452 119.903 179.452 110.028C179.452 99.4445 182.119 90.9653 187.452 84.5903C192.785 78.2153 199.89 75.0278 208.765 75.0278C217.556 75.0278 223.952 78.4862 227.952 85.4028H228.202V45.7778H238.452V140.528ZM228.202 111.59V102.153C228.202 96.9862 226.494 92.6112 223.077 89.0278C219.66 85.4445 215.327 83.6528 210.077 83.6528C203.827 83.6528 198.91 85.9445 195.327 90.5278C191.744 95.1112 189.952 101.444 189.952 109.528C189.952 116.903 191.66 122.736 195.077 127.028C198.535 131.278 203.16 133.403 208.952 133.403C214.66 133.403 219.285 131.34 222.827 127.215C226.41 123.09 228.202 117.882 228.202 111.59ZM310.952 140.528H300.702V130.403H300.452C296.202 138.153 289.619 142.028 280.702 142.028C265.452 142.028 257.827 132.944 257.827 114.778V76.5278H268.015V113.153C268.015 126.653 273.181 133.403 283.515 133.403C288.515 133.403 292.619 131.569 295.827 127.903C299.077 124.194 300.702 119.361 300.702 113.403V76.5278H310.952V140.528ZM327.827 138.215V127.215C333.41 131.34 339.556 133.403 346.265 133.403C355.265 133.403 359.765 130.403 359.765 124.403C359.765 122.694 359.369 121.257 358.577 120.09C357.827 118.882 356.785 117.819 355.452 116.903C354.16 115.986 352.619 115.174 350.827 114.465C349.077 113.715 347.181 112.944 345.14 112.153C342.306 111.028 339.806 109.903 337.64 108.778C335.515 107.611 333.723 106.319 332.265 104.903C330.848 103.444 329.765 101.799 329.015 99.9653C328.306 98.132 327.952 95.9862 327.952 93.5278C327.952 90.5278 328.64 87.882 330.015 85.5903C331.39 83.257 333.223 81.3195 335.515 79.7778C337.806 78.1945 340.41 77.007 343.327 76.2153C346.285 75.4237 349.327 75.0278 352.452 75.0278C357.994 75.0278 362.952 75.9862 367.327 77.9028V88.2778C362.619 85.1945 357.202 83.6528 351.077 83.6528C349.16 83.6528 347.431 83.882 345.89 84.3403C344.348 84.757 343.015 85.3612 341.89 86.1528C340.806 86.9445 339.952 87.9028 339.327 89.0278C338.744 90.1112 338.452 91.3195 338.452 92.6528C338.452 94.3195 338.744 95.7153 339.327 96.8403C339.952 97.9653 340.848 98.9653 342.015 99.8403C343.181 100.715 344.598 101.507 346.265 102.215C347.931 102.924 349.827 103.694 351.952 104.528C354.785 105.611 357.327 106.736 359.577 107.903C361.827 109.028 363.744 110.319 365.327 111.778C366.91 113.194 368.119 114.84 368.952 116.715C369.827 118.59 370.265 120.819 370.265 123.403C370.265 126.569 369.556 129.319 368.14 131.653C366.765 133.986 364.91 135.924 362.577 137.465C360.244 139.007 357.556 140.153 354.515 140.903C351.473 141.653 348.285 142.028 344.952 142.028C338.369 142.028 332.66 140.757 327.827 138.215Z" fill="#B9B9B9"/>
<path d="M84 138H71.125L25 66.5625C23.8333 64.7708 22.875 62.8958 22.125 60.9375H21.75C22.0833 62.8542 22.25 66.9583 22.25 73.25V138H11.75V48.375H25.375L70.25 118.688C72.125 121.604 73.3333 123.604 73.875 124.688H74.125C73.7083 122.104 73.5 117.708 73.5 111.5V48.375H84V138ZM132.875 139.5C123.417 139.5 115.854 136.521 110.188 130.562C104.562 124.562 101.75 116.625 101.75 106.75C101.75 96 104.688 87.6042 110.562 81.5625C116.438 75.5208 124.375 72.5 134.375 72.5C143.917 72.5 151.354 75.4375 156.688 81.3125C162.062 87.1875 164.75 95.3333 164.75 105.75C164.75 115.958 161.854 124.146 156.062 130.312C150.312 136.438 142.583 139.5 132.875 139.5ZM133.625 81.125C127.042 81.125 121.833 83.375 118 87.875C114.167 92.3333 112.25 98.5 112.25 106.375C112.25 113.958 114.188 119.938 118.062 124.312C121.938 128.688 127.125 130.875 133.625 130.875C140.25 130.875 145.333 128.729 148.875 124.438C152.458 120.146 154.25 114.042 154.25 106.125C154.25 98.125 152.458 91.9583 148.875 87.625C145.333 83.2917 140.25 81.125 133.625 81.125ZM235.75 138H225.5V127.125H225.25C220.5 135.375 213.167 139.5 203.25 139.5C195.208 139.5 188.771 136.646 183.938 130.938C179.146 125.188 176.75 117.375 176.75 107.5C176.75 96.9167 179.417 88.4375 184.75 82.0625C190.083 75.6875 197.188 72.5 206.062 72.5C214.854 72.5 221.25 75.9583 225.25 82.875H225.5V43.25H235.75V138ZM225.5 109.062V99.625C225.5 94.4583 223.792 90.0833 220.375 86.5C216.958 82.9167 212.625 81.125 207.375 81.125C201.125 81.125 196.208 83.4167 192.625 88C189.042 92.5833 187.25 98.9167 187.25 107C187.25 114.375 188.958 120.208 192.375 124.5C195.833 128.75 200.458 130.875 206.25 130.875C211.958 130.875 216.583 128.812 220.125 124.688C223.708 120.562 225.5 115.354 225.5 109.062ZM308.25 138H298V127.875H297.75C293.5 135.625 286.917 139.5 278 139.5C262.75 139.5 255.125 130.417 255.125 112.25V74H265.312V110.625C265.312 124.125 270.479 130.875 280.812 130.875C285.812 130.875 289.917 129.042 293.125 125.375C296.375 121.667 298 116.833 298 110.875V74H308.25V138ZM325.125 135.688V124.688C330.708 128.812 336.854 130.875 343.562 130.875C352.562 130.875 357.062 127.875 357.062 121.875C357.062 120.167 356.667 118.729 355.875 117.562C355.125 116.354 354.083 115.292 352.75 114.375C351.458 113.458 349.917 112.646 348.125 111.938C346.375 111.188 344.479 110.417 342.438 109.625C339.604 108.5 337.104 107.375 334.938 106.25C332.812 105.083 331.021 103.792 329.562 102.375C328.146 100.917 327.062 99.2708 326.312 97.4375C325.604 95.6042 325.25 93.4583 325.25 91C325.25 88 325.938 85.3542 327.312 83.0625C328.688 80.7292 330.521 78.7917 332.812 77.25C335.104 75.6667 337.708 74.4792 340.625 73.6875C343.583 72.8958 346.625 72.5 349.75 72.5C355.292 72.5 360.25 73.4583 364.625 75.375V85.75C359.917 82.6667 354.5 81.125 348.375 81.125C346.458 81.125 344.729 81.3542 343.188 81.8125C341.646 82.2292 340.312 82.8333 339.188 83.625C338.104 84.4167 337.25 85.375 336.625 86.5C336.042 87.5833 335.75 88.7917 335.75 90.125C335.75 91.7917 336.042 93.1875 336.625 94.3125C337.25 95.4375 338.146 96.4375 339.312 97.3125C340.479 98.1875 341.896 98.9792 343.562 99.6875C345.229 100.396 347.125 101.167 349.25 102C352.083 103.083 354.625 104.208 356.875 105.375C359.125 106.5 361.042 107.792 362.625 109.25C364.208 110.667 365.417 112.312 366.25 114.188C367.125 116.062 367.562 118.292 367.562 120.875C367.562 124.042 366.854 126.792 365.438 129.125C364.062 131.458 362.208 133.396 359.875 134.938C357.542 136.479 354.854 137.625 351.812 138.375C348.771 139.125 345.583 139.5 342.25 139.5C335.667 139.5 329.958 138.229 325.125 135.688Z" fill="#0B0B0B"/>
</svg>
