<svg width="399" height="152" viewBox="0 0 399 152" fill="none" xmlns="http://www.w3.org/2000/svg">
<rect x="6.5" y="149.5" width="392" height="2" rx="1" fill="#F9F9F9" stroke="white"/>
<path d="M90.1623 138H77.2873L31.1623 66.5625C29.9957 64.7708 29.0373 62.8958 28.2873 60.9375H27.9123C28.2457 62.8542 28.4123 66.9583 28.4123 73.25V138H17.9123V48.375H31.5373L76.4123 118.688C78.2873 121.604 79.4957 123.604 80.0373 124.688H80.2873C79.8707 122.104 79.6623 117.708 79.6623 111.5V48.375H90.1623V138ZM139.037 139.5C129.579 139.5 122.016 136.521 116.35 130.562C110.725 124.562 107.912 116.625 107.912 106.75C107.912 96 110.85 87.6042 116.725 81.5625C122.6 75.5208 130.537 72.5 140.537 72.5C150.079 72.5 157.516 75.4375 162.85 81.3125C168.225 87.1875 170.912 95.3333 170.912 105.75C170.912 115.958 168.016 124.146 162.225 130.312C156.475 136.438 148.746 139.5 139.037 139.5ZM139.787 81.125C133.204 81.125 127.996 83.375 124.162 87.875C120.329 92.3333 118.412 98.5 118.412 106.375C118.412 113.958 120.35 119.938 124.225 124.312C128.1 128.688 133.287 130.875 139.787 130.875C146.412 130.875 151.496 128.729 155.037 124.438C158.621 120.146 160.412 114.042 160.412 106.125C160.412 98.125 158.621 91.9583 155.037 87.625C151.496 83.2917 146.412 81.125 139.787 81.125ZM241.912 138H231.662V127.125H231.412C226.662 135.375 219.329 139.5 209.412 139.5C201.371 139.5 194.933 136.646 190.1 130.938C185.308 125.188 182.912 117.375 182.912 107.5C182.912 96.9167 185.579 88.4375 190.912 82.0625C196.246 75.6875 203.35 72.5 212.225 72.5C221.016 72.5 227.412 75.9583 231.412 82.875H231.662V43.25H241.912V138ZM231.662 109.062V99.625C231.662 94.4583 229.954 90.0833 226.537 86.5C223.121 82.9167 218.787 81.125 213.537 81.125C207.287 81.125 202.371 83.4167 198.787 88C195.204 92.5833 193.412 98.9167 193.412 107C193.412 114.375 195.121 120.208 198.537 124.5C201.996 128.75 206.621 130.875 212.412 130.875C218.121 130.875 222.746 128.812 226.287 124.688C229.871 120.562 231.662 115.354 231.662 109.062ZM314.412 138H304.162V127.875H303.912C299.662 135.625 293.079 139.5 284.162 139.5C268.912 139.5 261.287 130.417 261.287 112.25V74H271.475V110.625C271.475 124.125 276.641 130.875 286.975 130.875C291.975 130.875 296.079 129.042 299.287 125.375C302.537 121.667 304.162 116.833 304.162 110.875V74H314.412V138ZM331.287 135.688V124.688C336.871 128.812 343.016 130.875 349.725 130.875C358.725 130.875 363.225 127.875 363.225 121.875C363.225 120.167 362.829 118.729 362.037 117.562C361.287 116.354 360.246 115.292 358.912 114.375C357.621 113.458 356.079 112.646 354.287 111.938C352.537 111.188 350.641 110.417 348.6 109.625C345.766 108.5 343.266 107.375 341.1 106.25C338.975 105.083 337.183 103.792 335.725 102.375C334.308 100.917 333.225 99.2708 332.475 97.4375C331.766 95.6042 331.412 93.4583 331.412 91C331.412 88 332.1 85.3542 333.475 83.0625C334.85 80.7292 336.683 78.7917 338.975 77.25C341.266 75.6667 343.871 74.4792 346.787 73.6875C349.746 72.8958 352.787 72.5 355.912 72.5C361.454 72.5 366.412 73.4583 370.787 75.375V85.75C366.079 82.6667 360.662 81.125 354.537 81.125C352.621 81.125 350.891 81.3542 349.35 81.8125C347.808 82.2292 346.475 82.8333 345.35 83.625C344.266 84.4167 343.412 85.375 342.787 86.5C342.204 87.5833 341.912 88.7917 341.912 90.125C341.912 91.7917 342.204 93.1875 342.787 94.3125C343.412 95.4375 344.308 96.4375 345.475 97.3125C346.641 98.1875 348.058 98.9792 349.725 99.6875C351.391 100.396 353.287 101.167 355.412 102C358.246 103.083 360.787 104.208 363.037 105.375C365.287 106.5 367.204 107.792 368.787 109.25C370.371 110.667 371.579 112.312 372.412 114.188C373.287 116.062 373.725 118.292 373.725 120.875C373.725 124.042 373.016 126.792 371.6 129.125C370.225 131.458 368.371 133.396 366.037 134.938C363.704 136.479 361.016 137.625 357.975 138.375C354.933 139.125 351.746 139.5 348.412 139.5C341.829 139.5 336.121 138.229 331.287 135.688Z" fill="white"/>
<path d="M86.641 140.528H73.766L27.641 69.0903C26.4743 67.2987 25.516 65.4237 24.766 63.4653H24.391C24.7243 65.382 24.891 69.4862 24.891 75.7778V140.528H14.391V50.9028H28.016L72.891 121.215C74.766 124.132 75.9743 126.132 76.516 127.215H76.766C76.3493 124.632 76.141 120.236 76.141 114.028V50.9028H86.641V140.528ZM135.516 142.028C126.058 142.028 118.495 139.049 112.828 133.09C107.203 127.09 104.391 119.153 104.391 109.278C104.391 98.5278 107.328 90.132 113.203 84.0903C119.078 78.0487 127.016 75.0278 137.016 75.0278C146.558 75.0278 153.995 77.9653 159.328 83.8403C164.703 89.7153 167.391 97.8612 167.391 108.278C167.391 118.486 164.495 126.674 158.703 132.84C152.953 138.965 145.224 142.028 135.516 142.028ZM136.266 83.6528C129.683 83.6528 124.474 85.9028 120.641 90.4028C116.808 94.8612 114.891 101.028 114.891 108.903C114.891 116.486 116.828 122.465 120.703 126.84C124.578 131.215 129.766 133.403 136.266 133.403C142.891 133.403 147.974 131.257 151.516 126.965C155.099 122.674 156.891 116.569 156.891 108.653C156.891 100.653 155.099 94.4862 151.516 90.1528C147.974 85.8195 142.891 83.6528 136.266 83.6528ZM238.391 140.528H228.141V129.653H227.891C223.141 137.903 215.808 142.028 205.891 142.028C197.849 142.028 191.412 139.174 186.578 133.465C181.787 127.715 179.391 119.903 179.391 110.028C179.391 99.4445 182.058 90.9653 187.391 84.5903C192.724 78.2153 199.828 75.0278 208.703 75.0278C217.495 75.0278 223.891 78.4862 227.891 85.4028H228.141V45.7778H238.391V140.528ZM228.141 111.59V102.153C228.141 96.9862 226.433 92.6112 223.016 89.0278C219.599 85.4445 215.266 83.6528 210.016 83.6528C203.766 83.6528 198.849 85.9445 195.266 90.5278C191.683 95.1112 189.891 101.444 189.891 109.528C189.891 116.903 191.599 122.736 195.016 127.028C198.474 131.278 203.099 133.403 208.891 133.403C214.599 133.403 219.224 131.34 222.766 127.215C226.349 123.09 228.141 117.882 228.141 111.59ZM310.891 140.528H300.641V130.403H300.391C296.141 138.153 289.558 142.028 280.641 142.028C265.391 142.028 257.766 132.944 257.766 114.778V76.5278H267.953V113.153C267.953 126.653 273.12 133.403 283.453 133.403C288.453 133.403 292.558 131.569 295.766 127.903C299.016 124.194 300.641 119.361 300.641 113.403V76.5278H310.891V140.528ZM327.766 138.215V127.215C333.349 131.34 339.495 133.403 346.203 133.403C355.203 133.403 359.703 130.403 359.703 124.403C359.703 122.694 359.308 121.257 358.516 120.09C357.766 118.882 356.724 117.819 355.391 116.903C354.099 115.986 352.558 115.174 350.766 114.465C349.016 113.715 347.12 112.944 345.078 112.153C342.245 111.028 339.745 109.903 337.578 108.778C335.453 107.611 333.662 106.319 332.203 104.903C330.787 103.444 329.703 101.799 328.953 99.9653C328.245 98.132 327.891 95.9862 327.891 93.5278C327.891 90.5278 328.578 87.882 329.953 85.5903C331.328 83.257 333.162 81.3195 335.453 79.7778C337.745 78.1945 340.349 77.007 343.266 76.2153C346.224 75.4237 349.266 75.0278 352.391 75.0278C357.933 75.0278 362.891 75.9862 367.266 77.9028V88.2778C362.558 85.1945 357.141 83.6528 351.016 83.6528C349.099 83.6528 347.37 83.882 345.828 84.3403C344.287 84.757 342.953 85.3612 341.828 86.1528C340.745 86.9445 339.891 87.9028 339.266 89.0278C338.683 90.1112 338.391 91.3195 338.391 92.6528C338.391 94.3195 338.683 95.7153 339.266 96.8403C339.891 97.9653 340.787 98.9653 341.953 99.8403C343.12 100.715 344.537 101.507 346.203 102.215C347.87 102.924 349.766 103.694 351.891 104.528C354.724 105.611 357.266 106.736 359.516 107.903C361.766 109.028 363.683 110.319 365.266 111.778C366.849 113.194 368.058 114.84 368.891 116.715C369.766 118.59 370.203 120.819 370.203 123.403C370.203 126.569 369.495 129.319 368.078 131.653C366.703 133.986 364.849 135.924 362.516 137.465C360.183 139.007 357.495 140.153 354.453 140.903C351.412 141.653 348.224 142.028 344.891 142.028C338.308 142.028 332.599 140.757 327.766 138.215Z" fill="#6B6B6B"/>
<path d="M84 138H71.125L25 66.5625C23.8333 64.7708 22.875 62.8958 22.125 60.9375H21.75C22.0833 62.8542 22.25 66.9583 22.25 73.25V138H11.75V48.375H25.375L70.25 118.688C72.125 121.604 73.3333 123.604 73.875 124.688H74.125C73.7083 122.104 73.5 117.708 73.5 111.5V48.375H84V138ZM132.875 139.5C123.417 139.5 115.854 136.521 110.188 130.562C104.562 124.562 101.75 116.625 101.75 106.75C101.75 96 104.688 87.6042 110.562 81.5625C116.438 75.5208 124.375 72.5 134.375 72.5C143.917 72.5 151.354 75.4375 156.688 81.3125C162.062 87.1875 164.75 95.3333 164.75 105.75C164.75 115.958 161.854 124.146 156.062 130.312C150.312 136.438 142.583 139.5 132.875 139.5ZM133.625 81.125C127.042 81.125 121.833 83.375 118 87.875C114.167 92.3333 112.25 98.5 112.25 106.375C112.25 113.958 114.188 119.938 118.062 124.312C121.938 128.688 127.125 130.875 133.625 130.875C140.25 130.875 145.333 128.729 148.875 124.438C152.458 120.146 154.25 114.042 154.25 106.125C154.25 98.125 152.458 91.9583 148.875 87.625C145.333 83.2917 140.25 81.125 133.625 81.125ZM235.75 138H225.5V127.125H225.25C220.5 135.375 213.167 139.5 203.25 139.5C195.208 139.5 188.771 136.646 183.938 130.938C179.146 125.188 176.75 117.375 176.75 107.5C176.75 96.9167 179.417 88.4375 184.75 82.0625C190.083 75.6875 197.188 72.5 206.062 72.5C214.854 72.5 221.25 75.9583 225.25 82.875H225.5V43.25H235.75V138ZM225.5 109.062V99.625C225.5 94.4583 223.792 90.0833 220.375 86.5C216.958 82.9167 212.625 81.125 207.375 81.125C201.125 81.125 196.208 83.4167 192.625 88C189.042 92.5833 187.25 98.9167 187.25 107C187.25 114.375 188.958 120.208 192.375 124.5C195.833 128.75 200.458 130.875 206.25 130.875C211.958 130.875 216.583 128.812 220.125 124.688C223.708 120.562 225.5 115.354 225.5 109.062ZM308.25 138H298V127.875H297.75C293.5 135.625 286.917 139.5 278 139.5C262.75 139.5 255.125 130.417 255.125 112.25V74H265.312V110.625C265.312 124.125 270.479 130.875 280.812 130.875C285.812 130.875 289.917 129.042 293.125 125.375C296.375 121.667 298 116.833 298 110.875V74H308.25V138ZM325.125 135.688V124.688C330.708 128.812 336.854 130.875 343.562 130.875C352.562 130.875 357.062 127.875 357.062 121.875C357.062 120.167 356.667 118.729 355.875 117.562C355.125 116.354 354.083 115.292 352.75 114.375C351.458 113.458 349.917 112.646 348.125 111.938C346.375 111.188 344.479 110.417 342.438 109.625C339.604 108.5 337.104 107.375 334.938 106.25C332.812 105.083 331.021 103.792 329.562 102.375C328.146 100.917 327.062 99.2708 326.312 97.4375C325.604 95.6042 325.25 93.4583 325.25 91C325.25 88 325.938 85.3542 327.312 83.0625C328.688 80.7292 330.521 78.7917 332.812 77.25C335.104 75.6667 337.708 74.4792 340.625 73.6875C343.583 72.8958 346.625 72.5 349.75 72.5C355.292 72.5 360.25 73.4583 364.625 75.375V85.75C359.917 82.6667 354.5 81.125 348.375 81.125C346.458 81.125 344.729 81.3542 343.188 81.8125C341.646 82.2292 340.312 82.8333 339.188 83.625C338.104 84.4167 337.25 85.375 336.625 86.5C336.042 87.5833 335.75 88.7917 335.75 90.125C335.75 91.7917 336.042 93.1875 336.625 94.3125C337.25 95.4375 338.146 96.4375 339.312 97.3125C340.479 98.1875 341.896 98.9792 343.562 99.6875C345.229 100.396 347.125 101.167 349.25 102C352.083 103.083 354.625 104.208 356.875 105.375C359.125 106.5 361.042 107.792 362.625 109.25C364.208 110.667 365.417 112.312 366.25 114.188C367.125 116.062 367.562 118.292 367.562 120.875C367.562 124.042 366.854 126.792 365.438 129.125C364.062 131.458 362.208 133.396 359.875 134.938C357.542 136.479 354.854 137.625 351.812 138.375C348.771 139.125 345.583 139.5 342.25 139.5C335.667 139.5 329.958 138.229 325.125 135.688Z" fill="white"/>
</svg>
